# xmcd
#
# Track frame offsets: 
#        150
#        2712
#        15020
#        29896
#        48102
#        64752
#        85023
#        101559
#        115080
#        131479
#        148719
#        168054
#        187092
#        205591
#
# Disc length: 2997 seconds
#
# Revision: 0
# Processed by: cddbd v1.5.2PL0 Copyright (c) Steve Scherf et al.
# Submitted via: ExactAudioCopyFreeDBPlugin 1.0
#
DISCID=ac0bb30e
DTITLE=Tess Henley - High Heels and Sneakers
DYEAR=2013
DGENRE=R&B
TTITLE0=Intro
TTITLE1=Who Are You
TTITLE2=From The Get Go
TTITLE3=Daydreaming
TTITLE4=Gonna Fall In Love
TTITLE5=Going Back
TTITLE6=Live On
TTITLE7=Heartless Queen
TTITLE8=Something To Say
TTITLE9=Above
TTITLE10=Vultures
TTITLE11=Part Of My Dance
TTITLE12=You Are The One
TTITLE13=I'd Do Anything (A Song For Carly)
EXTD=
EXTT0=
EXTT1=
EXTT2=
EXTT3=
EXTT4=
EXTT5=
EXTT6=
EXTT7=
EXTT8=
EXTT9=
EXTT10=
EXTT11=
EXTT12=
EXTT13=
PLAYORDER=
